<svg width="80" height="106" viewBox="0 0 80 106" fill="none" xmlns="http://www.w3.org/2000/svg">
<path d="M9.22 86.06C11.26 86.06 12.8233 86.6333 13.91 87.78C14.9967 88.92 15.54 90.6133 15.54 92.86C15.54 94.32 15.2933 95.5867 14.8 96.66C14.3133 97.7267 13.5933 98.55 12.64 99.13C11.6933 99.71 10.5467 100 9.2 100H5.62V86.06H9.22ZM9.14 97.8C10.06 97.8 10.8033 97.5733 11.37 97.12C11.9367 96.6667 12.34 96.0767 12.58 95.35C12.82 94.6167 12.94 93.8067 12.94 92.92C12.94 91.5067 12.64 90.3433 12.04 89.43C11.4467 88.5167 10.48 88.06 9.14 88.06H8.2V97.8H9.14ZM25.037 100.22C24.417 100.22 23.8304 100.147 23.277 100C22.7304 99.8533 22.2504 99.6633 21.837 99.43C21.4237 99.1967 21.097 98.9533 20.857 98.7L21.877 96.6C22.0304 96.8 22.2637 97.0133 22.577 97.24C22.8904 97.4667 23.247 97.66 23.647 97.82C24.0537 97.98 24.457 98.06 24.857 98.06C25.3837 98.06 25.8237 97.9167 26.177 97.63C26.537 97.3367 26.717 96.9267 26.717 96.4C26.717 96.06 26.6337 95.7667 26.467 95.52C26.307 95.2667 26.0904 95.0433 25.817 94.85C25.5504 94.65 25.137 94.38 24.577 94.04C23.8104 93.5733 23.2104 93.1767 22.777 92.85C22.3437 92.5167 21.967 92.0833 21.647 91.55C21.3337 91.01 21.177 90.36 21.177 89.6C21.177 88.86 21.3337 88.2067 21.647 87.64C21.967 87.0667 22.437 86.62 23.057 86.3C23.677 85.98 24.4237 85.82 25.297 85.82C26.717 85.82 27.9037 86.2533 28.857 87.12L27.737 89.16C27.6237 89 27.4537 88.8267 27.227 88.64C27.0004 88.4467 26.727 88.2833 26.407 88.15C26.087 88.01 25.7504 87.94 25.397 87.94C24.8837 87.94 24.4837 88.09 24.197 88.39C23.917 88.6833 23.777 89.0533 23.777 89.5C23.777 89.84 23.8604 90.1433 24.027 90.41C24.2004 90.67 24.4237 90.9033 24.697 91.11C24.977 91.3167 25.3504 91.56 25.817 91.84C26.6637 92.34 27.3104 92.76 27.757 93.1C28.2037 93.44 28.577 93.8733 28.877 94.4C29.1837 94.92 29.337 95.56 29.337 96.32C29.337 97.1267 29.1637 97.8233 28.817 98.41C28.4704 98.9967 27.9737 99.4467 27.327 99.76C26.6804 100.067 25.917 100.22 25.037 100.22ZM35.4552 86.06C37.0285 86.06 38.2752 86.4333 39.1952 87.18C40.1152 87.92 40.5752 89.1733 40.5752 90.94C40.5752 91.9 40.3952 92.7833 40.0352 93.59C39.6752 94.39 39.1152 95.0367 38.3552 95.53C37.6018 96.0167 36.6618 96.26 35.5352 96.26H34.2952V100H31.7152V86.06H35.4552ZM35.3552 94.16C36.2285 94.16 36.8852 93.9 37.3252 93.38C37.7718 92.8533 37.9952 92.0867 37.9952 91.08C37.9952 90.38 37.9085 89.8133 37.7352 89.38C37.5618 88.94 37.2752 88.6133 36.8752 88.4C36.4818 88.1867 35.9552 88.08 35.2952 88.08H34.2952V94.16H35.3552ZM47.768 100.24C46.528 100.24 45.4713 99.9467 44.598 99.36C43.7246 98.7667 43.0646 97.93 42.618 96.85C42.1713 95.7633 41.948 94.4867 41.948 93.02C41.948 91.5667 42.168 90.3 42.608 89.22C43.0546 88.1333 43.708 87.2967 44.568 86.71C45.4346 86.1167 46.4813 85.82 47.708 85.82C48.9813 85.82 50.0546 86.12 50.928 86.72C51.8013 87.3133 52.4546 88.15 52.888 89.23C53.328 90.31 53.548 91.5733 53.548 93.02C53.548 94.4867 53.3213 95.7633 52.868 96.85C52.4213 97.93 51.7646 98.7667 50.898 99.36C50.0313 99.9467 48.988 100.24 47.768 100.24ZM47.768 98.1C48.3613 98.1 48.8913 97.91 49.358 97.53C49.8313 97.15 50.2046 96.5733 50.478 95.8C50.7513 95.0267 50.888 94.08 50.888 92.96C50.888 91.3133 50.608 90.06 50.048 89.2C49.4946 88.3333 48.7146 87.9 47.708 87.9C46.728 87.9 45.968 88.3333 45.428 89.2C44.8946 90.06 44.628 91.32 44.628 92.98C44.628 94.1133 44.7546 95.0633 45.008 95.83C45.268 96.59 45.6313 97.16 46.098 97.54C46.5713 97.9133 47.128 98.1 47.768 98.1ZM62.132 100L58.552 94.96V100H56.012V86.06H59.892C63.1987 86.06 64.852 87.54 64.852 90.5C64.852 91.16 64.7454 91.81 64.532 92.45C64.3187 93.0833 63.9687 93.6467 63.482 94.14C63.002 94.6333 62.3854 94.9733 61.632 95.16L65.232 100H62.132ZM59.612 93.7C60.1787 93.7 60.662 93.5667 61.062 93.3C61.4687 93.0267 61.7754 92.6667 61.982 92.22C62.1887 91.7667 62.292 91.2733 62.292 90.74C62.292 89.82 62.0787 89.1433 61.652 88.71C61.232 88.2767 60.532 88.06 59.552 88.06H58.552V93.7H59.612ZM75.255 88.32H72.035V100H69.455V88.32H66.235V86.06H75.255V88.32Z" fill="white"/>
<g clip-path="url(#clip0_7_64)">
<path d="M24.9495 2.9271C19.9874 4.93893 15.5349 7.89698 11.7168 11.7139C7.89765 15.532 4.94291 19.9856 2.92998 24.9467C0.986688 29.7397 0.000671387 34.8046 0.000671387 40C0.000671387 45.1943 0.986688 50.2592 2.92998 55.05C4.94291 60.0122 7.89875 64.4658 11.7168 68.2828C15.5349 72.1019 19.9863 75.0578 24.9495 77.0696C29.7426 79.0151 34.8064 79.9978 40.0018 79.9978C45.1972 79.9978 50.2599 79.0118 55.0529 77.0696C60.0139 75.0578 64.4687 72.1019 68.2856 68.2828C72.1048 64.4658 75.0606 60.0144 77.0725 55.05C79.0158 50.2592 79.9996 45.1943 79.9996 40C79.9996 34.8046 79.0146 29.7397 77.0725 24.9467C75.0606 19.9856 72.1026 15.5309 68.2856 11.7139C64.4687 7.89698 60.0184 4.93893 55.0529 2.9271C50.2599 0.984911 45.1972 0 40.0018 0C34.8064 0 29.7426 0.984911 24.9495 2.9271ZM9.99791 56.8386C8.0712 55.6292 6.29592 54.2364 4.72404 52.596C2.32312 45.8398 1.91633 38.5254 3.507 31.5824C4.25536 30.1067 5.10651 28.6895 6.06932 27.3321C6.36667 26.9132 6.64191 26.4765 6.96027 26.0697L15.987 31.411C15.987 31.4818 15.987 31.5592 15.987 31.6376C15.9638 36.4926 16.4568 41.3121 17.4384 46.062C17.4417 46.0841 17.445 46.0963 17.4494 46.1162L10.4489 57.0928C10.2964 57.0154 10.1449 56.9314 9.99791 56.8386ZM36.837 75.3949C38.3945 76.1897 39.9963 76.8607 41.6422 77.4067C34.6505 77.7107 27.5892 76.0725 21.347 72.491L36.4789 75.1871C36.5949 75.2611 36.7132 75.3319 36.837 75.3949ZM36.7817 72.6635L18.9251 69.481C16.8359 66.9441 14.9567 64.2602 13.3417 61.3917C12.9305 60.6621 12.4718 59.9536 12.1236 59.192L19.1175 48.2264C19.2722 48.2651 19.4447 48.306 19.6403 48.3579C24.0155 49.5285 28.468 50.3609 32.9515 51.0131C33.2135 51.0496 33.4324 51.0816 33.6192 51.1015L42.0026 65.5966C40.5478 67.6416 39.0766 69.6756 37.5732 71.6874C37.3234 72.0223 37.0581 72.344 36.7817 72.6635ZM66.4905 66.4887C65.0689 67.9113 63.5601 69.1936 61.9804 70.3366C61.7185 68.243 61.2664 66.1913 60.6285 64.1873L69.5734 47.5001C72.0374 46.3782 74.414 45.1058 76.6204 43.5284C76.9089 43.3239 77.1487 43.0951 77.3344 42.8453C76.6867 51.4685 73.072 59.9082 66.4905 66.4887ZM66.0936 44.8472C66.4264 45.4817 66.7547 46.1228 67.0841 46.7728L58.4443 62.8895C58.3945 62.9006 58.347 62.9116 58.2972 62.9183C53.6269 63.7904 48.919 64.2547 44.1713 64.2768L35.5492 49.3683C36.8912 46.8767 38.221 44.3752 39.5397 41.8725C40.4351 40.1747 41.315 38.4657 42.1938 36.7579L60.0383 34.9251C62.2236 38.1308 64.294 41.405 66.0936 44.8472ZM62.4734 25.7304C61.6267 27.9666 60.7203 30.1796 59.8194 32.3971L42.4359 34.1823C42.2281 33.9081 42.0125 33.6384 41.7859 33.3809C39.7332 31.0562 37.6672 28.7459 35.6045 26.429C35.6233 26.4058 35.6421 26.3881 35.6609 26.3671C34.8285 25.5358 33.9939 24.7046 33.1616 23.8711L38.001 9.30083C38.3348 9.2124 38.6709 9.13834 39.0102 9.10186C41.6411 8.83436 44.2752 8.53148 46.9127 8.37893C48.5277 8.28829 50.1516 8.23633 51.7942 8.3524L63.7679 21.8482C63.3556 23.1504 62.9532 24.4559 62.4734 25.7304ZM66.4905 13.5091C69.7934 16.8142 72.3513 20.5859 74.1597 24.615C71.9224 23.0752 69.5303 21.8084 67.0155 20.776C66.6242 20.6146 66.223 20.472 65.8151 20.3316L54.0293 7.04803C54.1111 6.47433 54.1542 5.89952 54.1719 5.32029C58.6554 7.1453 62.8581 9.87785 66.4905 13.5091ZM28.0049 4.62278C28.0513 4.65705 28.0734 4.68579 28.0999 4.69353C30.7938 5.62427 33.2445 6.99497 35.5548 8.62101L31.0337 22.2362C31.0105 22.2429 30.9883 22.2495 30.9662 22.2594C30.041 22.6419 29.0981 22.9846 28.1873 23.3991C24.4344 25.1047 20.7756 26.9939 17.3289 29.2588L8.40724 23.9805C8.4205 23.702 8.46803 23.419 8.5631 23.167C9.16222 21.5708 9.7514 19.9657 10.429 18.4016C10.9508 17.1967 11.5455 16.0327 12.1943 14.8953C12.6188 14.4266 13.0588 13.9623 13.512 13.5091C17.749 9.2732 22.7564 6.26541 28.0878 4.48682C28.0601 4.52993 28.0314 4.57525 28.0049 4.62278Z" fill="white"/>
</g>
<defs>
<clipPath id="clip0_7_64">
<rect width="80" height="80" fill="white"/>
</clipPath>
</defs>
</svg>
