<svg width="79" height="66" viewBox="0 0 79 66" fill="none" xmlns="http://www.w3.org/2000/svg">
<path d="M16.5571 54.545C18.0871 54.545 19.2596 54.975 20.0746 55.835C20.8896 56.69 21.2971 57.96 21.2971 59.645C21.2971 60.74 21.1121 61.69 20.7421 62.495C20.3771 63.295 19.8371 63.9125 19.1221 64.3475C18.4121 64.7825 17.5521 65 16.5421 65H13.8571V54.545H16.5571ZM16.4971 63.35C17.1871 63.35 17.7446 63.18 18.1696 62.84C18.5946 62.5 18.8971 62.0575 19.0771 61.5125C19.2571 60.9625 19.3471 60.355 19.3471 59.69C19.3471 58.63 19.1221 57.7575 18.6721 57.0725C18.2271 56.3875 17.5021 56.045 16.4971 56.045H15.7921V63.35H16.4971ZM28.4199 65.165C27.9549 65.165 27.5149 65.11 27.0999 65C26.6899 64.89 26.3299 64.7475 26.0199 64.5725C25.7099 64.3975 25.4649 64.215 25.2849 64.025L26.0499 62.45C26.1649 62.6 26.3399 62.76 26.5749 62.93C26.8099 63.1 27.0774 63.245 27.3774 63.365C27.6824 63.485 27.9849 63.545 28.2849 63.545C28.6799 63.545 29.0099 63.4375 29.2749 63.2225C29.5449 63.0025 29.6799 62.695 29.6799 62.3C29.6799 62.045 29.6174 61.825 29.4924 61.64C29.3724 61.45 29.2099 61.2825 29.0049 61.1375C28.8049 60.9875 28.4949 60.785 28.0749 60.53C27.4999 60.18 27.0499 59.8825 26.7249 59.6375C26.3999 59.3875 26.1174 59.0625 25.8774 58.6625C25.6424 58.2575 25.5249 57.77 25.5249 57.2C25.5249 56.645 25.6424 56.155 25.8774 55.73C26.1174 55.3 26.4699 54.965 26.9349 54.725C27.3999 54.485 27.9599 54.365 28.6149 54.365C29.6799 54.365 30.5699 54.69 31.2849 55.34L30.4449 56.87C30.3599 56.75 30.2324 56.62 30.0624 56.48C29.8924 56.335 29.6874 56.2125 29.4474 56.1125C29.2074 56.0075 28.9549 55.955 28.6899 55.955C28.3049 55.955 28.0049 56.0675 27.7899 56.2925C27.5799 56.5125 27.4749 56.79 27.4749 57.125C27.4749 57.38 27.5374 57.6075 27.6624 57.8075C27.7924 58.0025 27.9599 58.1775 28.1649 58.3325C28.3749 58.4875 28.6549 58.67 29.0049 58.88C29.6399 59.255 30.1249 59.57 30.4599 59.825C30.7949 60.08 31.0749 60.405 31.2999 60.8C31.5299 61.19 31.6449 61.67 31.6449 62.24C31.6449 62.845 31.5149 63.3675 31.2549 63.8075C30.9949 64.2475 30.6224 64.585 30.1374 64.82C29.6524 65.05 29.0799 65.165 28.4199 65.165ZM36.2335 54.545C37.4135 54.545 38.3485 54.825 39.0385 55.385C39.7285 55.94 40.0735 56.88 40.0735 58.205C40.0735 58.925 39.9385 59.5875 39.6685 60.1925C39.3985 60.7925 38.9785 61.2775 38.4085 61.6475C37.8435 62.0125 37.1385 62.195 36.2935 62.195H35.3635V65H33.4285V54.545H36.2335ZM36.1585 60.62C36.8135 60.62 37.306 60.425 37.636 60.035C37.971 59.64 38.1385 59.065 38.1385 58.31C38.1385 57.785 38.0735 57.36 37.9435 57.035C37.8135 56.705 37.5985 56.46 37.2985 56.3C37.0035 56.14 36.6085 56.06 36.1135 56.06H35.3635V60.62H36.1585ZM45.4681 65.18C44.5381 65.18 43.7456 64.96 43.0906 64.52C42.4356 64.075 41.9406 63.4475 41.6056 62.6375C41.2706 61.8225 41.1031 60.865 41.1031 59.765C41.1031 58.675 41.2681 57.725 41.5981 56.915C41.9331 56.1 42.4231 55.4725 43.0681 55.0325C43.7181 54.5875 44.5031 54.365 45.4231 54.365C46.3781 54.365 47.1831 54.59 47.8381 55.04C48.4931 55.485 48.9831 56.1125 49.3081 56.9225C49.6381 57.7325 49.8031 58.68 49.8031 59.765C49.8031 60.865 49.6331 61.8225 49.2931 62.6375C48.9581 63.4475 48.4656 64.075 47.8156 64.52C47.1656 64.96 46.3831 65.18 45.4681 65.18ZM45.4681 63.575C45.9131 63.575 46.3106 63.4325 46.6606 63.1475C47.0156 62.8625 47.2956 62.43 47.5006 61.85C47.7056 61.27 47.8081 60.56 47.8081 59.72C47.8081 58.485 47.5981 57.545 47.1781 56.9C46.7631 56.25 46.1781 55.925 45.4231 55.925C44.6881 55.925 44.1181 56.25 43.7131 56.9C43.3131 57.545 43.1131 58.49 43.1131 59.735C43.1131 60.585 43.2081 61.2975 43.3981 61.8725C43.5931 62.4425 43.8656 62.87 44.2156 63.155C44.5706 63.435 44.9881 63.575 45.4681 63.575ZM56.2411 65L53.5561 61.22V65H51.6511V54.545H54.5611C57.0411 54.545 58.2811 55.655 58.2811 57.875C58.2811 58.37 58.2011 58.8575 58.0411 59.3375C57.8811 59.8125 57.6186 60.235 57.2536 60.605C56.8936 60.975 56.4311 61.23 55.8661 61.37L58.5661 65H56.2411ZM54.3511 60.275C54.7761 60.275 55.1386 60.175 55.4386 59.975C55.7436 59.77 55.9736 59.5 56.1286 59.165C56.2836 58.825 56.3611 58.455 56.3611 58.055C56.3611 57.365 56.2011 56.8575 55.8811 56.5325C55.5661 56.2075 55.0411 56.045 54.3061 56.045H53.5561V60.275H54.3511ZM66.0833 56.24H63.6683V65H61.7333V56.24H59.3183V54.545H66.0833V56.24Z" fill="url(#paint0_linear_77_30)"/>
<g clip-path="url(#clip0_77_30)">
<path d="M30.5938 1.82944C27.4924 3.08683 24.7096 4.93561 22.3233 7.3212C19.9363 9.70748 18.0896 12.491 16.8316 15.5917C15.617 18.5873 15.0007 21.7529 15.0007 25C15.0007 28.2464 15.617 31.412 16.8316 34.4063C18.0896 37.5076 19.937 40.2911 22.3233 42.6767C24.7096 45.0637 27.4918 46.9111 30.5938 48.1685C33.5894 49.3844 36.7543 49.9986 40.0014 49.9986C43.2485 49.9986 46.4127 49.3824 49.4084 48.1685C52.509 46.9111 55.2932 45.0637 57.6788 42.6767C60.0658 40.2911 61.9132 37.509 63.1706 34.4063C64.3852 31.412 65 28.2464 65 25C65 21.7529 64.3845 18.5873 63.1706 15.5917C61.9132 12.491 60.0644 9.70679 57.6788 7.3212C55.2932 4.93561 52.5118 3.08683 49.4084 1.82944C46.4127 0.61557 43.2485 0 40.0014 0C36.7543 0 33.5894 0.61557 30.5938 1.82944ZM21.249 35.5241C20.0448 34.7683 18.9353 33.8978 17.9528 32.8725C16.4523 28.6499 16.198 24.0784 17.1922 19.739C17.6599 18.8167 18.1919 17.931 18.7936 17.0826C18.9795 16.8207 19.1515 16.5478 19.3505 16.2936L24.9922 19.6319C24.9922 19.6761 24.9922 19.7245 24.9922 19.7735C24.9777 22.8079 25.2858 25.8201 25.8993 28.7888C25.9014 28.8026 25.9034 28.8102 25.9062 28.8226L21.5309 35.683C21.4355 35.6346 21.3409 35.5821 21.249 35.5241ZM38.0234 47.1218C38.9969 47.6186 39.998 48.0379 41.0267 48.3792C36.6569 48.5692 32.2436 47.5453 28.3422 45.3069L37.7996 46.9919C37.8721 47.0382 37.9461 47.0824 38.0234 47.1218ZM37.9889 45.4147L26.8285 43.4256C25.5228 41.8401 24.3483 40.1626 23.3389 38.3698C23.0819 37.9138 22.7952 37.471 22.5776 36.995L26.9487 30.1415C27.0454 30.1657 27.1532 30.1912 27.2755 30.2237C30.01 30.9553 32.7928 31.4756 35.595 31.8832C35.7588 31.906 35.8956 31.926 36.0123 31.9385L41.2519 40.9979C40.3427 42.276 39.4232 43.5472 38.4836 44.8046C38.3274 45.014 38.1616 45.215 37.9889 45.4147ZM56.5569 41.5554C55.6684 42.4446 54.7254 43.246 53.7381 43.9604C53.5744 42.6519 53.2918 41.3696 52.8932 40.117L58.4837 29.6876C60.0237 28.9864 61.5091 28.1912 62.888 27.2053C63.0684 27.0775 63.2183 26.9345 63.3343 26.7783C62.9295 32.1678 60.6703 37.4427 56.5569 41.5554ZM56.3088 28.0295C56.5168 28.4261 56.722 28.8268 56.9279 29.233L51.528 39.306C51.4969 39.3129 51.4672 39.3198 51.4361 39.3239C48.5171 39.869 45.5747 40.1592 42.6074 40.173L37.2186 30.8552C38.0573 29.2979 38.8884 27.7345 39.7126 26.1703C40.2722 25.1092 40.8222 24.0411 41.3714 22.9737L52.5242 21.8282C53.8901 23.8317 55.1841 25.8781 56.3088 28.0295ZM54.0462 16.0815C53.517 17.4791 52.9505 18.8623 52.3874 20.2482L41.5227 21.3639C41.3928 21.1926 41.2581 21.024 41.1165 20.863C39.8335 19.4101 38.5423 17.9662 37.2531 16.5181C37.2649 16.5036 37.2766 16.4926 37.2884 16.4794C36.7681 15.9599 36.2465 15.4404 35.7263 14.9194L38.7509 5.81302C38.9596 5.75775 39.1696 5.71146 39.3817 5.68866C41.026 5.52147 42.6723 5.33217 44.3208 5.23683C45.3301 5.18018 46.345 5.14771 47.3717 5.22025L54.8552 13.6551C54.5975 14.469 54.3461 15.2849 54.0462 16.0815ZM56.5569 8.44318C58.6212 10.5089 60.2199 12.8662 61.3501 15.3844C59.9518 14.422 58.4568 13.6303 56.885 12.985C56.6405 12.8841 56.3897 12.795 56.1347 12.7073L48.7686 4.40502C48.8198 4.04645 48.8467 3.6872 48.8577 3.32518C51.6599 4.46582 54.2866 6.17366 56.5569 8.44318ZM32.5034 2.88924C32.5324 2.91066 32.5462 2.92862 32.5628 2.93346C34.2464 3.51517 35.7781 4.37186 37.222 5.38813L34.3964 13.8976C34.3818 13.9018 34.368 13.9059 34.3542 13.9121C33.7759 14.1512 33.1866 14.3654 32.6174 14.6244C30.2718 15.6905 27.985 16.8712 25.8309 18.2868L20.2548 14.9878C20.2631 14.8137 20.2928 14.6369 20.3522 14.4794C20.7267 13.4817 21.0949 12.4786 21.5184 11.501C21.8445 10.7479 22.2162 10.0205 22.6218 9.30954C22.8871 9.01661 23.162 8.72644 23.4453 8.44318C26.0934 5.79575 29.2231 3.91588 32.5552 2.80426C32.5379 2.83121 32.5199 2.85953 32.5034 2.88924Z" fill="url(#paint1_linear_77_30)"/>
</g>
<defs>
<linearGradient id="paint0_linear_77_30" x1="39.5" y1="50" x2="39.5" y2="65" gradientUnits="userSpaceOnUse">
<stop stop-color="#22FF53"/>
<stop offset="1" stop-color="#00BA29"/>
</linearGradient>
<linearGradient id="paint1_linear_77_30" x1="40.0004" y1="0" x2="40.0004" y2="49.9986" gradientUnits="userSpaceOnUse">
<stop stop-color="#22FF53"/>
<stop offset="1" stop-color="#00BA29"/>
</linearGradient>
<clipPath id="clip0_77_30">
<rect width="50" height="50" fill="white" transform="translate(15)"/>
</clipPath>
</defs>
</svg>
